<svg width="64" height="64" viewBox="0 0 64 64" fill="none" xmlns="http://www.w3.org/2000/svg">
<path d="M53.3333 29.3333V28C53.3333 16.2173 43.7827 6.66663 32 6.66663C20.2173 6.66663 10.6667 16.2173 10.6667 28V29.3333M10.6667 45.3333C10.6667 45.3333 8 52 13.3333 54.6666C18.6667 57.3333 45.3333 57.3333 50.6667 54.6666C56 52 53.3333 45.3333 53.3333 45.3333" stroke="black" stroke-width="5.33333" stroke-linecap="round" stroke-linejoin="round"/>
<path d="M48 28H16C10.8454 28 6.66669 32.1787 6.66669 37.3333C6.66669 42.488 10.8454 46.6667 16 46.6667H48C53.1547 46.6667 57.3334 42.488 57.3334 37.3333C57.3334 32.1787 53.1547 28 48 28Z" stroke="black" stroke-width="5.33333" stroke-linecap="round" stroke-linejoin="round"/>
<path d="M14.6667 38.6667L16.7894 37.6053C17.7991 37.1005 18.9043 36.8153 20.0322 36.7684C21.1601 36.7216 22.2852 36.9141 23.3334 37.3333L23.8987 37.56C24.7692 37.9081 25.7036 38.0679 26.6403 38.0288C27.577 37.9898 28.4949 37.7527 29.3334 37.3333C30.1719 36.9139 31.0897 36.6769 32.0264 36.6378C32.9631 36.5988 33.8975 36.7586 34.768 37.1067L36.048 37.6187C36.8717 37.9484 37.7558 38.0998 38.6422 38.0631C39.5286 38.0263 40.3972 37.8021 41.1907 37.4053C42.063 36.9693 43.0248 36.7422 44 36.7422C44.9752 36.7422 45.9371 36.9693 46.8094 37.4053L49.3334 38.6667" stroke="black" stroke-width="5.33333" stroke-linecap="round" stroke-linejoin="round"/>
<path d="M22.6667 23.3999C24.5077 23.3999 26 21.9076 26 20.0666C26 18.2257 24.5077 16.7333 22.6667 16.7333C20.8258 16.7333 19.3334 18.2257 19.3334 20.0666C19.3334 21.9076 20.8258 23.3999 22.6667 23.3999Z" fill="black"/>
<path d="M31.6667 19.7333C33.5077 19.7333 35 18.2409 35 16.4C35 14.559 33.5077 13.0667 31.6667 13.0667C29.8258 13.0667 28.3334 14.559 28.3334 16.4C28.3334 18.2409 29.8258 19.7333 31.6667 19.7333Z" fill="black"/>
</svg>
