<svg width="64" height="64" viewBox="0 0 64 64" fill="none" xmlns="http://www.w3.org/2000/svg">
<path d="M50.6667 8H13.3333C11.9188 8 10.5623 8.5619 9.5621 9.5621C8.5619 10.5623 8 11.9188 8 13.3333V50.6667C8 52.0812 8.5619 53.4377 9.5621 54.4379C10.5623 55.4381 11.9188 56 13.3333 56H50.6667C52.0812 56 53.4377 55.4381 54.4379 54.4379C55.4381 53.4377 56 52.0812 56 50.6667V13.3333C56 11.9188 55.4381 10.5623 54.4379 9.5621C53.4377 8.5619 52.0812 8 50.6667 8ZM41.6 45.3333L32 35.7333L22.4 45.3333L18.6667 41.6L28.2667 32L18.6667 22.4L22.4 18.6667L32 28.2667L41.6 18.6667L45.3333 22.4L35.7333 32L45.3333 41.6L41.6 45.3333Z" fill="black"/>
</svg>
